<?xml version="1.0" encoding="UTF-8" standalone="no"?>
<!-- Created with Inkscape (http://www.inkscape.org/) -->

<svg
   width="1920"
   height="1080"
   viewBox="0 0 508 285.75"
   version="1.1"
   id="svg5"
   inkscape:version="1.1 (c68e22c387, 2021-05-23)"
   sodipodi:docname="desenho.svg"
   inkscape:export-filename="D:\Projects\Something\desenho.png"
   inkscape:export-xdpi="300"
   inkscape:export-ydpi="300"
   xmlns:inkscape="http://www.inkscape.org/namespaces/inkscape"
   xmlns:sodipodi="http://sodipodi.sourceforge.net/DTD/sodipodi-0.dtd"
   xmlns="http://www.w3.org/2000/svg"
   xmlns:svg="http://www.w3.org/2000/svg">
  <sodipodi:namedview
     id="namedview7"
     pagecolor="#505050"
     bordercolor="#eeeeee"
     borderopacity="1"
     inkscape:pageshadow="0"
     inkscape:pageopacity="0"
     inkscape:pagecheckerboard="0"
     inkscape:document-units="px"
     showgrid="false"
     inkscape:zoom="0.5"
     inkscape:cx="936"
     inkscape:cy="601"
     inkscape:window-width="1920"
     inkscape:window-height="1027"
     inkscape:window-x="-8"
     inkscape:window-y="22"
     inkscape:window-maximized="1"
     inkscape:current-layer="layer3"
     inkscape:snap-bbox="true"
     inkscape:snap-intersection-paths="true"
     inkscape:object-paths="true"
     showguides="false"
     inkscape:object-nodes="true"
     inkscape:snap-smooth-nodes="false"
     inkscape:snap-midpoints="true"
     inkscape:snap-others="true" />
  <defs
     id="defs2">
    <rect
       x="692.71829"
       y="-1.5815486"
       width="403.29477"
       height="371.66407"
       id="rect40323" />
    <rect
       x="610.47776"
       y="303.65733"
       width="691.13678"
       height="403.29487"
       id="rect2017" />
    <rect
       x="692.71826"
       y="-1.5815486"
       width="403.29477"
       height="371.66406"
       id="rect40323-0" />
    <rect
       x="692.71826"
       y="-1.5815486"
       width="403.29477"
       height="371.66406"
       id="rect40323-0-1" />
    <rect
       x="692.71826"
       y="-1.5815486"
       width="804.773"
       height="370.54574"
       id="rect40323-3" />
    <rect
       x="692.71826"
       y="-1.5815486"
       width="794.70808"
       height="383.96562"
       id="rect40323-0-7" />
    <rect
       x="692.71826"
       y="-1.5815486"
       width="815.95624"
       height="392.91221"
       id="rect40323-0-1-0" />
    <rect
       x="692.71826"
       y="-1.5815486"
       width="804.77301"
       height="370.54575"
       id="rect40323-3-1" />
    <rect
       x="692.71826"
       y="-1.5815486"
       width="794.70807"
       height="383.96561"
       id="rect40323-0-7-2" />
    <rect
       x="692.71826"
       y="-1.5815486"
       width="815.95624"
       height="392.9122"
       id="rect40323-0-1-0-6" />
    <rect
       x="692.71826"
       y="-1.5815486"
       width="815.95624"
       height="392.9122"
       id="rect40323-0-1-0-6-9" />
    <rect
       x="692.71826"
       y="-1.5815486"
       width="794.70807"
       height="383.96561"
       id="rect40323-0-7-2-0" />
    <rect
       x="692.71826"
       y="-1.5815486"
       width="804.77301"
       height="370.54575"
       id="rect40323-3-1-8" />
    <rect
       x="692.71826"
       y="-1.5815486"
       width="804.77301"
       height="370.54575"
       id="rect40323-3-1-7" />
    <rect
       x="692.71826"
       y="-1.5815486"
       width="794.70807"
       height="383.96561"
       id="rect40323-0-7-2-3" />
    <rect
       x="692.71826"
       y="-1.5815486"
       width="815.95624"
       height="392.9122"
       id="rect40323-0-1-0-6-1" />
    <rect
       x="692.71826"
       y="-1.5815486"
       width="804.77301"
       height="370.54575"
       id="rect40323-3-1-7-4" />
    <rect
       x="692.71826"
       y="-1.5815486"
       width="794.70807"
       height="383.96561"
       id="rect40323-0-7-2-3-5" />
    <rect
       x="692.71826"
       y="-1.5815486"
       width="815.95624"
       height="392.9122"
       id="rect40323-0-1-0-6-1-1" />
    <rect
       x="692.71826"
       y="-1.5815486"
       width="804.77301"
       height="370.54575"
       id="rect40323-3-1-7-5" />
    <rect
       x="692.71826"
       y="-1.5815486"
       width="794.70807"
       height="383.96561"
       id="rect40323-0-7-2-3-7" />
    <rect
       x="692.71826"
       y="-1.5815486"
       width="815.95624"
       height="392.9122"
       id="rect40323-0-1-0-6-1-5" />
  </defs>
  <g
     inkscape:label="Camada 1"
     inkscape:groupmode="layer"
     id="layer1"
     sodipodi:insensitive="true"
     style="display:none">
    <rect
       style="fill:#ffffff;stroke-width:2.97299"
       id="rect868"
       width="509.25534"
       height="287.05768"
       x="-0.4184514"
       y="-1.2553542"
       ry="0" />
  </g>
  <g
     inkscape:groupmode="layer"
     id="layer2"
     inkscape:label="Camada 2"
     style="display:none">
    <text
       xml:space="preserve"
       transform="matrix(0.26458333,0,0,0.26458333,-168.63591,-75.321252)"
       id="text2015"
       style="font-style:normal;font-weight:normal;font-size:96px;line-height:0;font-family:sans-serif;text-align:center;white-space:pre;shape-inside:url(#rect2017);fill:#000000;fill-opacity:1;stroke:none"
       x="231.82031"
       y="0"><tspan
         x="956.04688"
         y="331.24191"
         id="tspan1849">
</tspan><tspan
         x="956.04688"
         y="331.24191"
         id="tspan1851">
</tspan><tspan
         x="813.17188"
         y="358.14544"
         id="tspan1855"><tspan
           style="line-height:0.75;font-family:'Harlow Solid Italic';-inkscape-font-specification:'Harlow Solid Italic, '"
           id="tspan1853">willpine
</tspan></tspan><tspan
         x="956.04688"
         y="430.14544"
         id="tspan1859"><tspan
           style="line-height:0.75;font-family:'Harlow Solid Italic';-inkscape-font-specification:'Harlow Solid Italic, '"
           id="tspan1857">
</tspan></tspan><tspan
         x="765.99219"
         y="502.14544"
         id="tspan1863"><tspan
           style="line-height:0.75;font-family:'Harlow Solid Italic';-inkscape-font-specification:'Harlow Solid Italic, '"
           id="tspan1861">WillPine
</tspan></tspan><tspan
         x="956.04688"
         y="574.14544"
         id="tspan1867"><tspan
           style="line-height:0.75;font-family:'Harlow Solid Italic';-inkscape-font-specification:'Harlow Solid Italic, '"
           id="tspan1865">
</tspan></tspan><tspan
         x="646.625"
         y="646.14544"
         id="tspan1871"><tspan
           style="line-height:0.75;font-family:'Harlow Solid Italic';-inkscape-font-specification:'Harlow Solid Italic, '"
           id="tspan1869">WILLPINE</tspan></tspan></text>
    <text
       xml:space="preserve"
       transform="matrix(0.26458333,0,0,0.26458333,19.232839,9.1725844)"
       id="text40321"
       style="font-style:normal;font-variant:normal;font-weight:normal;font-stretch:normal;font-size:85.3333px;line-height:0.85;font-family:Tauri;-inkscape-font-specification:Tauri;white-space:pre;shape-inside:url(#rect40323);fill:#800080;fill-opacity:1;stroke:none"><tspan
         x="692.71875"
         y="60.017944"
         id="tspan1873">willpine
</tspan><tspan
         x="692.71875"
         y="132.55125"
         id="tspan1875">
</tspan><tspan
         x="692.71875"
         y="205.08455"
         id="tspan1877">WillPine
</tspan><tspan
         x="692.71875"
         y="277.61786"
         id="tspan1879">
</tspan><tspan
         x="692.71875"
         y="350.15115"
         id="tspan1881">WILLPINE</tspan></text>
    <text
       xml:space="preserve"
       transform="matrix(0.26458333,0,0,0.26458333,19.300648,7.2459454)"
       id="text40321-1"
       style="font-style:normal;font-variant:normal;font-weight:normal;font-stretch:normal;font-size:85.3333px;line-height:0.85;font-family:Tauri;-inkscape-font-specification:Tauri;white-space:pre;shape-inside:url(#rect40323-0);fill:#ff6600;fill-opacity:1;stroke:none"><tspan
         x="692.71875"
         y="60.017944"
         id="tspan1883">willpine
</tspan><tspan
         x="692.71875"
         y="132.55125"
         id="tspan1885">
</tspan><tspan
         x="692.71875"
         y="205.08455"
         id="tspan1887">WillPine
</tspan><tspan
         x="692.71875"
         y="277.61786"
         id="tspan1889">
</tspan><tspan
         x="692.71875"
         y="350.15115"
         id="tspan1891">WILLPINE</tspan></text>
    <text
       xml:space="preserve"
       transform="matrix(0.26458333,0,0,0.26458333,19.300648,5.1747164)"
       id="text40321-1-0"
       style="font-style:normal;font-variant:normal;font-weight:normal;font-stretch:normal;font-size:85.3333px;line-height:0.85;font-family:Tauri;-inkscape-font-specification:Tauri;white-space:pre;shape-inside:url(#rect40323-0-1);fill:#fff6d5;fill-opacity:1;stroke:none"><tspan
         x="692.71875"
         y="60.017944"
         id="tspan1893">willpine
</tspan><tspan
         x="692.71875"
         y="132.55125"
         id="tspan1895">
</tspan><tspan
         x="692.71875"
         y="205.08455"
         id="tspan1897">WillPine
</tspan><tspan
         x="692.71875"
         y="277.61786"
         id="tspan1899">
</tspan><tspan
         x="692.71875"
         y="350.15115"
         id="tspan1901">WILLPINE</tspan></text>
    <text
       xml:space="preserve"
       transform="matrix(0.26458333,0,0,0.26458333,134.36789,9.8366549)"
       id="text40321-6"
       style="font-style:normal;font-variant:normal;font-weight:normal;font-stretch:normal;font-size:85.3333px;line-height:0.85;font-family:'Rockwell Extra Bold';-inkscape-font-specification:'Rockwell Extra Bold, ';white-space:pre;shape-inside:url(#rect40323-3);fill:#800080;fill-opacity:1;stroke:none"><tspan
         x="692.71875"
         y="57.15404"
         id="tspan1903">willpine
</tspan><tspan
         x="692.71875"
         y="129.68734"
         id="tspan1905">
</tspan><tspan
         x="692.71875"
         y="202.22064"
         id="tspan1907">WillPine
</tspan><tspan
         x="692.71875"
         y="274.75395"
         id="tspan1909">
</tspan><tspan
         x="692.71875"
         y="347.28725"
         id="tspan1911">WILLPINE</tspan></text>
    <text
       xml:space="preserve"
       transform="matrix(0.26458333,0,0,0.26458333,134.4357,7.9100149)"
       id="text40321-1-7"
       style="font-style:normal;font-variant:normal;font-weight:normal;font-stretch:normal;font-size:85.3333px;line-height:0.85;font-family:'Rockwell Extra Bold';-inkscape-font-specification:'Rockwell Extra Bold, ';white-space:pre;shape-inside:url(#rect40323-0-7);fill:#ff6600;fill-opacity:1;stroke:none"><tspan
         x="692.71875"
         y="57.15404"
         id="tspan1913">willpine
</tspan><tspan
         x="692.71875"
         y="129.68734"
         id="tspan1915">
</tspan><tspan
         x="692.71875"
         y="202.22064"
         id="tspan1917">WillPine
</tspan><tspan
         x="692.71875"
         y="274.75395"
         id="tspan1919">
</tspan><tspan
         x="692.71875"
         y="347.28725"
         id="tspan1921">WILLPINE</tspan></text>
    <text
       xml:space="preserve"
       transform="matrix(0.26458333,0,0,0.26458333,134.4357,5.8387949)"
       id="text40321-1-0-2"
       style="font-style:normal;font-variant:normal;font-weight:normal;font-stretch:normal;font-size:85.3333px;line-height:0.85;font-family:'Rockwell Extra Bold';-inkscape-font-specification:'Rockwell Extra Bold, ';white-space:pre;shape-inside:url(#rect40323-0-1-0);fill:#fff6d5;fill-opacity:1;stroke:none"><tspan
         x="692.71875"
         y="57.15404"
         id="tspan1923">willpine
</tspan><tspan
         x="692.71875"
         y="129.68734"
         id="tspan1925">
</tspan><tspan
         x="692.71875"
         y="202.22064"
         id="tspan1927">WillPine
</tspan><tspan
         x="692.71875"
         y="274.75395"
         id="tspan1929">
</tspan><tspan
         x="692.71875"
         y="347.28725"
         id="tspan1931">WILLPINE</tspan></text>
    <text
       xml:space="preserve"
       transform="matrix(0.26458333,0,0,0.26458333,140.35566,120.73198)"
       id="text40321-6-4"
       style="font-style:normal;font-variant:normal;font-weight:normal;font-stretch:normal;font-size:85.3333px;line-height:0.85;font-family:Nasalization;-inkscape-font-specification:Nasalization;white-space:pre;shape-inside:url(#rect40323-3-1);display:inline;fill:#800080;fill-opacity:1;stroke:none"><tspan
         x="692.71875"
         y="54.54966"
         id="tspan1933">willpine
</tspan><tspan
         x="692.71875"
         y="127.08296"
         id="tspan1935">
</tspan><tspan
         x="692.71875"
         y="199.61626"
         id="tspan1937">WillPine
</tspan><tspan
         x="692.71875"
         y="272.14957"
         id="tspan1939">
</tspan><tspan
         x="692.71875"
         y="344.68287"
         id="tspan1941">WILLPINE</tspan></text>
    <text
       xml:space="preserve"
       transform="matrix(0.26458333,0,0,0.26458333,140.42347,118.80534)"
       id="text40321-1-7-1"
       style="font-style:normal;font-variant:normal;font-weight:normal;font-stretch:normal;font-size:85.3333px;line-height:0.85;font-family:Nasalization;-inkscape-font-specification:Nasalization;white-space:pre;shape-inside:url(#rect40323-0-7-2);display:inline;fill:#ff6600;fill-opacity:1;stroke:none"><tspan
         x="692.71875"
         y="54.54966"
         id="tspan1943">willpine
</tspan><tspan
         x="692.71875"
         y="127.08296"
         id="tspan1945">
</tspan><tspan
         x="692.71875"
         y="199.61626"
         id="tspan1947">WillPine
</tspan><tspan
         x="692.71875"
         y="272.14957"
         id="tspan1949">
</tspan><tspan
         x="692.71875"
         y="344.68287"
         id="tspan1951">WILLPINE</tspan></text>
    <text
       xml:space="preserve"
       transform="matrix(0.26458333,0,0,0.26458333,140.42347,116.73412)"
       id="text40321-1-0-2-5"
       style="font-style:normal;font-variant:normal;font-weight:normal;font-stretch:normal;font-size:85.3333px;line-height:0.85;font-family:Nasalization;-inkscape-font-specification:Nasalization;white-space:pre;shape-inside:url(#rect40323-0-1-0-6);display:inline;fill:#fff6d5;fill-opacity:1;stroke:none"><tspan
         x="692.71875"
         y="54.54966"
         id="tspan1953">willpine
</tspan><tspan
         x="692.71875"
         y="127.08296"
         id="tspan1955">
</tspan><tspan
         x="692.71875"
         y="199.61626"
         id="tspan1957">WillPine
</tspan><tspan
         x="692.71875"
         y="272.14957"
         id="tspan1959">
</tspan><tspan
         x="692.71875"
         y="344.68287"
         id="tspan1961">WILLPINE</tspan></text>
    <text
       xml:space="preserve"
       transform="matrix(0.26458333,0,0,0.26458333,41.713168,168.26756)"
       id="text40321-6-4-8"
       style="font-style:normal;font-variant:normal;font-weight:normal;font-stretch:normal;font-size:85.3333px;line-height:0.85;font-family:'Hitchhiker b';-inkscape-font-specification:'Hitchhiker b';white-space:pre;shape-inside:url(#rect40323-3-1-8);display:inline;fill:#800080;fill-opacity:1;stroke:none"><tspan
         x="692.71875"
         y="56.017946"
         id="tspan1963">willpine
</tspan><tspan
         x="692.71875"
         y="128.55125"
         id="tspan1965">
</tspan><tspan
         x="692.71875"
         y="201.08455"
         id="tspan1967">WillPine
</tspan><tspan
         x="692.71875"
         y="273.61786"
         id="tspan1969">
</tspan><tspan
         x="692.71875"
         y="346.15115"
         id="tspan1971">WILLPINE</tspan></text>
    <text
       xml:space="preserve"
       transform="matrix(0.26458333,0,0,0.26458333,41.780978,166.34092)"
       id="text40321-1-7-1-0"
       style="font-style:normal;font-variant:normal;font-weight:normal;font-stretch:normal;font-size:85.3333px;line-height:0.85;font-family:'Hitchhiker b';-inkscape-font-specification:'Hitchhiker b';white-space:pre;shape-inside:url(#rect40323-0-7-2-0);display:inline;fill:#ff6600;fill-opacity:1;stroke:none"><tspan
         x="692.71875"
         y="56.017946"
         id="tspan1973">willpine
</tspan><tspan
         x="692.71875"
         y="128.55125"
         id="tspan1975">
</tspan><tspan
         x="692.71875"
         y="201.08455"
         id="tspan1977">WillPine
</tspan><tspan
         x="692.71875"
         y="273.61786"
         id="tspan1979">
</tspan><tspan
         x="692.71875"
         y="346.15115"
         id="tspan1981">WILLPINE</tspan></text>
    <text
       xml:space="preserve"
       transform="matrix(0.26458333,0,0,0.26458333,41.780978,164.2697)"
       id="text40321-1-0-2-5-1"
       style="font-style:normal;font-variant:normal;font-weight:normal;font-stretch:normal;font-size:85.3333px;line-height:0.85;font-family:'Hitchhiker b';-inkscape-font-specification:'Hitchhiker b';white-space:pre;shape-inside:url(#rect40323-0-1-0-6-9);display:inline;fill:#fff6d5;fill-opacity:1;stroke:none"><tspan
         x="692.71875"
         y="56.017946"
         id="tspan1983">willpine
</tspan><tspan
         x="692.71875"
         y="128.55125"
         id="tspan1985">
</tspan><tspan
         x="692.71875"
         y="201.08455"
         id="tspan1987">WillPine
</tspan><tspan
         x="692.71875"
         y="273.61786"
         id="tspan1989">
</tspan><tspan
         x="692.71875"
         y="346.15115"
         id="tspan1991">WILLPINE</tspan></text>
  </g>
  <g
     inkscape:groupmode="layer"
     id="layer4"
     inkscape:label="Camada 4"
     style="display:none" />
  <g
     inkscape:groupmode="layer"
     id="layer5"
     inkscape:label="Camada 5"
     style="display:none" />
  <g
     inkscape:groupmode="layer"
     id="layer3"
     inkscape:label="Camada 3"
     style="display:inline">
    <g
       aria-label="willpine  WillPine  WILLPINE"
       transform="matrix(0.26458333,0,0,0.26458333,128.98217,108.38748)"
       id="text40321-6-4-5-2"
       style="font-size:85.3333px;line-height:0.85;font-family:Nasalization;-inkscape-font-specification:Nasalization;white-space:pre;shape-inside:url(#rect40323-3-1-7-5);display:inline;fill:#7a1f78" />
    <g
       id="g40311"
       transform="matrix(4.0964773,0,0,4.0964773,-1212.7216,-485.1825)">
      <path
         style="fill:#7a1f78;fill-opacity:1;stroke:#000000;stroke-width:0;stroke-linecap:butt;stroke-linejoin:miter;stroke-miterlimit:4;stroke-dasharray:none;stroke-opacity:1"
         d="m 312.69297,145.96262 0.0678,-3.99786 2.17376,4.20411 -2.24157,-0.20625"
         id="path27833" />
      <path
         d="m 694.34008,142.01629 17.83466,47.95731 c 2.21867,6.57067 5.888,10.66666 13.568,10.66666 8.53333,0 12.79999,-5.03466 12.79999,-12.62932 v -33.96266 c 0,-2.048 1.19467,-3.32799 2.90133,-3.32799 1.536,0 2.73067,1.02399 3.24267,2.47466 l 13.99466,36.77865 c 2.21866,6.57067 5.888,10.66666 13.56799,10.66666 8.53333,0 12.8,-5.03466 12.8,-12.62932 v -45.99465 l -9.89836,-15.11002 -4.14202,7.6854 -0.11428,42.6176 c -0.005,1.96268 -3.50717,10.86767 -5.21384,10.86767 -1.45066,0 -1.95783,-1.81367 -2.46983,-3.26434 l -8.36966,-33.15365 c -2.21866,-6.57066 -6.2385,-23.12942 -13.9185,-23.12942 -8.44799,0 -15.16745,9.66011 -15.08598,17.16899 l 0.3384,31.19076 c 0.0213,1.96256 -1.28,3.24267 -2.98666,3.24267 -1.536,0 -0.2619,9.75632 -0.85924,8.30565 l -17.23732,-46.42131 z"
         id="path26633"
         sodipodi:nodetypes="ccssssccsscccssccssssccc"
         style="font-size:85.3333px;line-height:0.85;font-family:Nasalization;-inkscape-font-specification:Nasalization;white-space:pre;shape-inside:url(#rect40323-3-1-7-5);display:inline;fill:#7a1f78"
         transform="matrix(0.26458333,0,0,0.26458333,128.98217,108.38748)" />
      <path
         d="m 798.70285,144.77308 v 54.04672 h 9.04533 v -54.04672 z m 0,-20.36988 v 12.59042 h 9.13066 V 124.4032 Z"
         id="path26635"
         style="font-size:85.3333px;line-height:0.85;font-family:Nasalization;-inkscape-font-specification:Nasalization;white-space:pre;shape-inside:url(#rect40323-3-1-7-5);display:inline;fill:#7a1f78;stroke-width:1.09524"
         transform="matrix(0.26458333,0,0,0.26458333,128.98217,108.38748)" />
      <path
         d="m 820.71878,191.14703 v 8.46923 h 9.04533 v -8.46923 z"
         id="path26637"
         style="font-size:85.3333px;line-height:0.85;font-family:Nasalization;-inkscape-font-specification:Nasalization;white-space:pre;shape-inside:url(#rect40323-3-1-7-5);display:inline;fill:#7a1f78;stroke-width:0.362089"
         transform="matrix(0.26458333,0,0,0.26458333,128.98217,108.38748)" />
      <path
         d="m 842.73472,191.02647 10e-6,8.58979 h 9.04533 l -1e-5,-8.58979 z"
         id="path26639"
         sodipodi:nodetypes="ccccc"
         style="font-size:85.3333px;line-height:0.85;font-family:Nasalization;-inkscape-font-specification:Nasalization;white-space:pre;shape-inside:url(#rect40323-3-1-7-5);display:inline;fill:#7a1f78;stroke-width:1.08611"
         transform="matrix(0.26458333,0,0,0.26458333,128.98217,108.38748)" />
      <path
         d="m 865.092,142.01629 v 10.06933 h 29.95199 c 5.46133,0 7.936,3.49866 7.936,7.67999 0,4.01067 -2.304,7.936 -8.02133,7.936 h -20.73599 c -6.31467,0 -9.04533,2.64533 -9.04533,9.13066 v 22.78399 h 10.06932 v -20.82132 c 0,-1.024 0.512,-1.45067 1.45067,-1.45067 h 17.91999 c 13.48266,0 18.51733,-9.38666 18.51733,-18.09065 0,-0.29343 -0.006,-10.4294 -0.0169,-10.72019 -0.3438,-8.84222 -5.94272,-6.51714 -18.5004,-6.51714 z"
         id="path26641"
         sodipodi:nodetypes="ccsssssccssssssc"
         style="font-size:85.3333px;line-height:0.85;font-family:Nasalization;-inkscape-font-specification:Nasalization;white-space:pre;shape-inside:url(#rect40323-3-1-7-5);display:inline;fill:#7a1f78"
         transform="matrix(0.26458333,0,0,0.26458333,128.98217,108.38748)" />
      <path
         d="m 922.69188,154.56028 v 45.05598 h 9.04533 v -45.05598 z m 0,-19.76654 v 3.55849 h 9.13066 v -3.55849 z"
         id="path26643"
         sodipodi:nodetypes="cccccccccc"
         style="font-size:85.3333px;line-height:0.85;font-family:Nasalization;-inkscape-font-specification:Nasalization;white-space:pre;shape-inside:url(#rect40323-3-1-7-5);display:inline;fill:#7a1f78"
         transform="matrix(0.26458333,0,0,0.26458333,128.98217,108.38748)" />
      <path
         d="m 950.7662,154.56028 c -4.52267,0 -6.31467,1.70667 -6.31467,6.99733 v 38.05865 h 9.04533 v -35.07198 c 0,-0.85333 0.34134,-1.28 1.10933,-1.28 h 14.76267 c 9.47199,0 13.56799,3.92533 13.56799,11.008 v 25.34398 h 9.13066 v -25.34398 c 0,-12.45867 -7.42399,-19.712 -22.69865,-19.712 z"
         id="path26645"
         style="font-size:85.3333px;line-height:0.85;font-family:Nasalization;-inkscape-font-specification:Nasalization;white-space:pre;shape-inside:url(#rect40323-3-1-7-5);display:inline;fill:#7a1f78"
         transform="matrix(0.26458333,0,0,0.26458333,128.98217,108.38748)" />
      <path
         d="m 1019.801,153.76478 c -11.264,0 -15.7013,6.31467 -15.7013,14.848 v 15.35999 c 0,8.53333 4.4373,14.84799 15.7013,14.84799 h 27.5627 v -8.78932 h -27.5627 c -4.9493,0 -6.912,-2.64534 -6.912,-6.22934 v -3.24266 h 21.4187 c 11.0933,0 15.2747,-4.69333 15.2747,-12.97066 0,-8.704 -4.5227,-13.824 -15.1894,-13.824 z m -6.912,13.6075 c 0,-3.49866 1.9627,-4.9035 6.912,-4.9035 h 14.5067 c 4.4373,0 6.4,0.89284 6.4,4.30617 0,3.328 -1.792,5.376 -6.656,5.376 h -21.1627 z"
         id="path26647"
         sodipodi:nodetypes="ssssccsscssssssssscs"
         style="font-size:85.3333px;line-height:0.85;font-family:Nasalization;-inkscape-font-specification:Nasalization;white-space:pre;shape-inside:url(#rect40323-3-1-7-5);display:inline;fill:#7a1f78"
         transform="matrix(0.26458333,0,0,0.26458333,128.98217,108.38748)" />
      <path
         d="m 312.72503,144.02736 4.75968,12.68286 c 0.58702,1.73849 1.5527,2.83669 3.5847,2.83669 2.25778,0 3.38666,-1.33209 3.38666,-3.34151 v -8.98595 c 0,-0.54187 0.31609,-0.88053 0.76765,-0.88053 0.4064,0 0.72249,0.27093 0.85795,0.65475 l 3.70276,9.73102 c 0.58702,1.73849 1.55787,2.82222 3.58986,2.82222 2.25778,0 3.38667,-1.33209 3.38667,-3.34151 v -12.16942 l -2.68675,-2.07122 -0.54796,1.01672 -0.0568,13.15577 c -0.002,0.51929 0.2887,0.81322 -0.16286,0.81322 -0.38382,0 -0.69991,-0.24836 -0.83538,-0.63218 l -3.70275,-9.73102 c -0.58702,-1.73848 -3.23409,-3.51675 -5.26609,-3.51675 -2.2352,0 -2.11121,2.6054 -2.10732,4.59224 l 0.0165,8.42975 c 0.001,0.51929 0.0417,0.85796 -0.40988,0.85796 -0.4064,0 -0.67734,-0.24836 -0.83538,-0.63218 l -4.55554,-12.29677 -2.8518,-2.05798 z"
         id="path26566"
         sodipodi:nodetypes="ccssssccsscccssccsssscccc"
         style="font-size:85.3333px;line-height:0.85;font-family:Nasalization;-inkscape-font-specification:Nasalization;white-space:pre;fill:#ff2e62;stroke-width:0.264583" />
      <path
         d="m 340.30576,147.34295 v 11.88934 h 2.39509 l 10e-6,-11.98855 z m 0,-4.48101 v 1.21494 l 2.41565,-0.005 -0.0243,-1.21003 z"
         id="path26568"
         sodipodi:nodetypes="cccccccccc"
         style="font-size:85.3333px;line-height:0.85;font-family:Nasalization;-inkscape-font-specification:Nasalization;white-space:pre;fill:#ff2e62;stroke-width:0.264231" />
      <path
         d="m 346.13068,142.18461 v 17.09136 h 2.39324 v -17.09136 z"
         id="path26570"
         style="font-size:85.3333px;line-height:0.85;font-family:Nasalization;-inkscape-font-specification:Nasalization;white-space:pre;fill:#ff2e62;stroke-width:0.264583"
         sodipodi:nodetypes="ccccc" />
      <path
         d="m 353.03149,155.84208 -1.07576,0.37696 v 3.05693 h 2.39324 v -3.19725 z"
         id="path26572"
         sodipodi:nodetypes="cccccc"
         style="font-size:85.3333px;line-height:0.85;font-family:Nasalization;-inkscape-font-specification:Nasalization;white-space:pre;fill:#ff2e62;stroke-width:0.264583" />
      <path
         d="m 357.87109,144.03598 v 2.66418 h 7.9248 c 1.44498,0 2.09973,0.92569 2.09973,2.032 0,1.06115 -0.6096,2.09973 -2.12231,2.09973 h -5.48639 c -1.67076,0 -2.39325,0.69991 -2.39325,2.41582 v 6.02826 h 2.66418 V 153.767 c 0,-0.27093 0.13546,-0.38382 0.38382,-0.38382 h 4.74133 c 3.56729,0 4.89938,-2.48356 4.89938,-4.78649 0,-0.10334 -0.003,-2.28971 -0.008,-2.39178 -0.11998,-2.30629 -1.60506,-2.16893 -4.89143,-2.16893 z"
         id="path26574"
         sodipodi:nodetypes="ccsssssccssssssc"
         style="font-size:85.3333px;line-height:0.85;font-family:Nasalization;-inkscape-font-specification:Nasalization;white-space:pre;fill:#ff2e62;stroke-width:0.264583" />
      <path
         d="m 373.11106,147.35491 v 11.92106 h 2.39324 v -11.92106 z m 0,-3.97207 v 0.93485 h 2.41582 v -0.93485 z"
         id="path26576"
         sodipodi:nodetypes="cccccccccc"
         style="font-size:85.3333px;line-height:0.85;font-family:Nasalization;-inkscape-font-specification:Nasalization;white-space:pre;fill:#ff2e62;stroke-width:0.264583" />
      <path
         d="m 380.60687,147.35491 c -1.19663,0 -1.67076,0.45156 -1.67076,1.85138 v 10.06968 h 2.39324 v -9.27946 c 0,-0.22577 0.0903,-0.33866 0.29351,-0.33866 h 3.90596 c 2.50613,0 3.58986,1.03857 3.58986,2.91253 v 6.70559 h 2.41583 v -6.70559 c 0,-3.29636 -1.96427,-5.21547 -6.00569,-5.21547 z"
         id="path26578"
         style="font-size:85.3333px;line-height:0.85;font-family:Nasalization;-inkscape-font-specification:Nasalization;white-space:pre;fill:#ff2e62;stroke-width:0.264583"
         sodipodi:nodetypes="ssccssssccsss" />
      <path
         d="m 398.80451,147.35491 c -2.98026,0 -4.1543,1.67076 -4.1543,3.92854 v 4.06399 c 0,2.25778 1.17404,3.92853 4.1543,3.92853 h 7.29263 v -2.3255 h -7.29263 c -1.3095,0 -1.8288,-0.69992 -1.8288,-1.64818 l 0.12623,-1.05522 h 5.66704 c 2.9351,0 3.91519,-1.04451 3.91519,-3.23456 0,-2.30293 -1.19663,-3.6576 -4.01886,-3.6576 z m -1.8288,3.95111 c -0.10874,-0.91927 0.56608,-1.88203 1.87558,-1.88203 h 3.83823 c 1.17404,0 1.64656,0.82088 1.64656,1.72399 0,0.88053 -0.3479,1.22513 -1.63484,1.22513 h -5.5993 z"
         id="path26580"
         sodipodi:nodetypes="ssssccsscssssssssscs"
         style="font-size:85.3333px;line-height:0.85;font-family:Nasalization;-inkscape-font-specification:Nasalization;white-space:pre;fill:#ff2e62;stroke-width:0.264583" />
      <g
         aria-label="willpine  WillPine  WILLPINE"
         transform="matrix(0.26458333,0,0,0.26458333,129.04998,104.38962)"
         id="text40321-1-0-2-5-9-6"
         style="font-size:85.3333px;line-height:0.85;font-family:Nasalization;-inkscape-font-specification:Nasalization;white-space:pre;shape-inside:url(#rect40323-0-1-0-6-1-5);display:inline;fill:#ffd5d8">
        <path
           d="m 693.95292,9.493679 4.77286,35.669318 c 0.86778,6.229331 3.90506,10.410663 12.40941,10.410663 7.28945,0 11.19451,-3.071999 12.66975,-9.30133 l 6.50844,-27.391988 c 0.34711,-1.536 1.56202,-2.218666 3.38438,-2.218666 1.73559,0 3.03727,0.682666 3.38439,2.218666 l 6.16132,27.391988 c 1.38846,6.229331 5.20675,9.30133 12.32263,9.30133 8.3308,0 11.97553,-4.181332 12.84332,-10.410663 l 5.11996,-35.669318 h -9.9796 l -4.77285,35.157319 c -0.26034,1.962666 -1.04135,2.901332 -3.12405,2.901332 -2.0827,0 -3.12405,-0.853333 -3.47116,-2.474666 L 746.0204,17.771009 c -1.38847,-5.973331 -4.94641,-9.1306629 -12.23586,-9.1306629 -7.28944,0 -11.1945,3.1573319 -12.58297,9.1306629 l -6.50843,27.306655 c -0.4339,1.621333 -1.30169,2.474666 -3.38439,2.474666 -2.16948,0 -3.03727,-0.938666 -3.29761,-2.901332 L 703.93253,9.493679 Z"
           id="path26313"
           style="display:none;stroke-width:1.00844" />
        <path
           d="M 782.57465,9.493679 V 54.54966 h 9.04533 V 9.493679 Z m 0,-16.9813262 V 3.0083484 h 9.13066 V -7.4876472 Z"
           id="path26315"
           style="display:none" />
        <path
           d="M 804.59059,-10.047646 V 54.54966 h 9.04533 v -64.597306 z"
           id="path26317"
           style="display:none" />
        <path
           d="M 826.60653,-10.047646 V 54.54966 h 9.04533 v -64.597306 z"
           id="path26319"
           style="display:none" />
        <path
           d="m 865.00647,9.493679 c -10.83733,0 -16.55466,6.314664 -16.55466,19.285325 v 43.861315 h 9.04533 V 54.54966 h 19.96799 c 11.94666,0 19.45599,-7.338663 19.45599,-22.52799 0,-15.189327 -7.50933,-22.527991 -19.45599,-22.527991 z m -7.50933,19.711992 c 0,-7.76533 2.816,-11.007996 10.15466,-11.007996 h 8.87466 c 7.85067,0 11.264,4.095999 11.264,13.823995 0,9.727996 -3.41333,13.738661 -11.264,13.738661 h -19.02932 z"
           id="path26321"
           style="display:none" />
        <path
           d="M 907.75836,9.493679 V 54.54966 h 9.04533 V 9.493679 Z m 0,-16.9813262 V 3.0083484 h 9.13066 V -7.4876472 Z"
           id="path26323"
           style="display:none" />
        <path
           d="m 936.08897,9.493679 c -4.52267,0 -6.31467,1.706666 -6.31467,6.99733 V 54.54966 h 9.04533 V 19.477675 c 0,-0.853333 0.34133,-1.28 1.10933,-1.28 h 14.76266 c 9.472,0 13.568,3.925332 13.568,11.007996 V 54.54966 h 9.13066 V 29.205671 c 0,-12.458662 -7.424,-19.711992 -22.69866,-19.711992 z"
           id="path26325"
           style="display:none" />
        <path
           d="m 1004.8675,9.493679 c -11.264,0 -15.70133,6.314664 -15.70133,14.847994 v 15.359993 c 0,8.53333 4.43733,14.847994 15.70133,14.847994 h 27.5627 v -8.789329 h -27.5627 c -4.94933,0 -6.912,-2.645333 -6.912,-6.229331 v -3.242665 h 21.4187 c 11.0933,0 15.2746,-4.693332 15.2746,-12.970662 0,-8.703996 -4.5226,-13.823994 -15.1893,-13.823994 z m -6.912,14.933327 c 0,-3.498665 1.96267,-6.229331 6.912,-6.229331 h 14.5067 c 4.4373,0 6.4,2.218666 6.4,5.631998 0,3.327999 -1.792,5.375998 -6.656,5.375998 h -21.1627 z"
           id="path26327"
           style="display:none" />
        <path
           d="m 694.34008,142.01629 17.83466,47.95731 c 2.21867,6.57067 5.888,10.66666 13.568,10.66666 8.53333,0 12.79999,-5.03466 12.79999,-12.62932 v -33.96266 c 0,-2.048 1.19467,-3.32799 2.90133,-3.32799 1.536,0 2.73067,1.02399 3.24267,2.47466 l 13.99466,36.77865 c 2.21866,6.57067 5.888,10.66666 13.56799,10.66666 8.53333,0 12.8,-5.03466 12.8,-12.62932 v -45.99465 h -10.15466 v 45.56798 c 0,1.96267 -1.19467,3.24267 -2.90134,3.24267 -1.45066,0 -2.64533,-0.93867 -3.15733,-2.38934 l -13.99466,-36.77865 c -2.21866,-6.57066 -5.97333,-10.66666 -13.65333,-10.66666 -8.44799,0 -12.71466,5.03466 -12.71466,12.54399 v 34.04799 c 0,1.96267 -1.28,3.24267 -2.98666,3.24267 -1.536,0 -2.56,-0.93867 -3.15734,-2.38934 l -17.23732,-46.42131 z"
           id="path26329"
           sodipodi:nodetypes="ccssssccssccssccssssccc" />
        <path
           d="m 798.44655,154.56028 v 45.05598 h 9.04533 v -45.05598 z m 0,-16.98132 v 10.49599 h 9.13066 v -10.49599 z"
           id="path26331" />
        <path
           d="m 820.46249,135.01896 v 64.5973 h 9.04533 v -64.5973 z"
           id="path26333" />
        <path
           d="m 842.47843,135.01896 v 64.5973 h 9.04533 v -64.5973 z"
           id="path26335" />
        <path
           d="m 864.83571,142.01629 v 10.06933 h 29.95199 c 5.46133,0 7.936,3.49866 7.936,7.67999 0,4.01067 -2.304,7.936 -8.02133,7.936 h -20.73599 c -6.31467,0 -9.04533,2.64533 -9.04533,9.13066 v 22.78399 h 10.06932 v -20.82132 c 0,-1.024 0.512,-1.45067 1.45067,-1.45067 h 17.91999 c 13.48266,0 18.51733,-9.38666 18.51733,-18.09065 0,-9.216 -5.54667,-17.23733 -18.51733,-17.23733 z"
           id="path26337" />
        <path
           d="m 922.43559,154.56028 v 45.05598 h 9.04533 v -45.05598 z m 0,-16.98132 v 10.49599 h 9.13066 v -10.49599 z"
           id="path26339" />
        <path
           d="m 950.7662,154.56028 c -4.52267,0 -6.31467,1.70667 -6.31467,6.99733 v 38.05865 h 9.04533 v -35.07198 c 0,-0.85333 0.34134,-1.28 1.10933,-1.28 h 14.76267 c 9.47199,0 13.56799,3.92533 13.56799,11.008 v 25.34398 h 9.13066 v -25.34398 c 0,-12.45867 -7.42399,-19.712 -22.69865,-19.712 z"
           id="path26341" />
        <path
           d="m 1019.5447,154.56028 c -11.264,0 -15.7013,6.31467 -15.7013,14.848 v 15.35999 c 0,8.53333 4.4373,14.84799 15.7013,14.84799 h 27.5627 v -8.78932 h -27.5627 c -4.9493,0 -6.912,-2.64534 -6.912,-6.22934 v -3.24266 h 21.4187 c 11.0933,0 15.2747,-4.69333 15.2747,-12.97066 0,-8.704 -4.5227,-13.824 -15.1894,-13.824 z m -6.912,14.93333 c 0,-3.49866 1.9627,-6.22933 6.912,-6.22933 h 14.5067 c 4.4373,0 6.4,2.21867 6.4,5.632 0,3.328 -1.792,5.376 -6.656,5.376 h -21.1627 z"
           id="path26343" />
      </g>
    </g>
  </g>
  <g
     inkscape:groupmode="layer"
     id="layer6"
     inkscape:label="Camada 6"
     style="display:none">
    <text
       xml:space="preserve"
       transform="matrix(0.26458333,0,0,0.26458333,-13.026448,105.53892)"
       id="text40321-6-4-5"
       style="font-style:normal;font-variant:normal;font-weight:normal;font-stretch:normal;font-size:85.3333px;line-height:0.85;font-family:Nasalization;-inkscape-font-specification:Nasalization;white-space:pre;shape-inside:url(#rect40323-3-1-7);display:inline;fill:#7a1f78;fill-opacity:1;stroke:none"><tspan
         x="692.71875"
         y="54.54966"
         id="tspan1993">willpine
</tspan><tspan
         x="692.71875"
         y="127.08296"
         id="tspan1995">
</tspan><tspan
         x="692.71875"
         y="199.61626"
         id="tspan1997">WillPine
</tspan><tspan
         x="692.71875"
         y="272.14957"
         id="tspan1999">
</tspan><tspan
         x="692.71875"
         y="344.68287"
         id="tspan2001">WILLPINE</tspan></text>
    <text
       xml:space="preserve"
       transform="matrix(0.26458333,0,0,0.26458333,-12.958638,103.61228)"
       id="text40321-1-7-1-1"
       style="font-style:normal;font-variant:normal;font-weight:normal;font-stretch:normal;font-size:85.3333px;line-height:0.85;font-family:Nasalization;-inkscape-font-specification:Nasalization;white-space:pre;shape-inside:url(#rect40323-0-7-2-3);display:inline;fill:#ff2e62;fill-opacity:1;stroke:none"><tspan
         x="692.71875"
         y="54.54966"
         id="tspan2003">willpine
</tspan><tspan
         x="692.71875"
         y="127.08296"
         id="tspan2005">
</tspan><tspan
         x="692.71875"
         y="199.61626"
         id="tspan2007">WillPine
</tspan><tspan
         x="692.71875"
         y="272.14957"
         id="tspan2009">
</tspan><tspan
         x="692.71875"
         y="344.68287"
         id="tspan2011">WILLPINE</tspan></text>
    <text
       xml:space="preserve"
       transform="matrix(0.26458333,0,0,0.26458333,-12.958638,101.54106)"
       id="text40321-1-0-2-5-9"
       style="font-style:normal;font-variant:normal;font-weight:normal;font-stretch:normal;font-size:85.3333px;line-height:0.85;font-family:Nasalization;-inkscape-font-specification:Nasalization;white-space:pre;shape-inside:url(#rect40323-0-1-0-6-1);display:inline;fill:#ffd5d8;fill-opacity:1;stroke:none"><tspan
         x="692.71875"
         y="54.54966"
         id="tspan2013">willpine
</tspan><tspan
         x="692.71875"
         y="127.08296"
         id="tspan2015">
</tspan><tspan
         x="692.71875"
         y="199.61626"
         id="tspan2017">WillPine
</tspan><tspan
         x="692.71875"
         y="272.14957"
         id="tspan2019">
</tspan><tspan
         x="692.71875"
         y="344.68287"
         id="tspan2021">WILLPINE</tspan></text>
  </g>
</svg>
