<?xml version="1.0" encoding="UTF-8" standalone="no"?>
<!-- Created with Inkscape (http://www.inkscape.org/) -->

<svg
   width="1920"
   height="1080"
   viewBox="0 0 508 285.75001"
   version="1.1"
   id="svg5"
   inkscape:version="1.1.2 (0a00cf5339, 2022-02-04, custom)"
   sodipodi:docname="willpine-logo-v2.svg"
   xmlns:inkscape="http://www.inkscape.org/namespaces/inkscape"
   xmlns:sodipodi="http://sodipodi.sourceforge.net/DTD/sodipodi-0.dtd"
   xmlns="http://www.w3.org/2000/svg"
   xmlns:svg="http://www.w3.org/2000/svg">
  <sodipodi:namedview
     id="namedview7"
     pagecolor="#505050"
     bordercolor="#eeeeee"
     borderopacity="1"
     inkscape:pageshadow="0"
     inkscape:pageopacity="0"
     inkscape:pagecheckerboard="0"
     inkscape:document-units="mm"
     showgrid="false"
     inkscape:zoom="0.35355339"
     inkscape:cx="1125.714"
     inkscape:cy="247.48737"
     inkscape:window-width="1455"
     inkscape:window-height="1018"
     inkscape:window-x="453"
     inkscape:window-y="0"
     inkscape:window-maximized="0"
     inkscape:current-layer="g51199"
     units="px"
     inkscape:snap-intersection-paths="false"
     inkscape:object-paths="false"
     inkscape:snap-bbox="false"
     inkscape:snap-object-midpoints="false"
     inkscape:snap-midpoints="false"
     inkscape:snap-smooth-nodes="false"
     inkscape:lockguides="true"
     inkscape:snap-page="true" />
  <defs
     id="defs2">
    <rect
       x="31.374775"
       y="67.978676"
       width="739.05023"
       height="998.76361"
       id="rect9874" />
    <rect
       x="-13.944344"
       y="-12.2013"
       width="815.74414"
       height="285.85904"
       id="rect4609" />
    <rect
       x="31.374775"
       y="67.978676"
       width="739.05023"
       height="998.76361"
       id="rect9874-1" />
    <rect
       x="31.374775"
       y="67.978676"
       width="739.05023"
       height="998.76361"
       id="rect9874-1-1" />
    <rect
       x="31.374775"
       y="67.978676"
       width="739.05023"
       height="998.76361"
       id="rect1181" />
    <rect
       x="31.374775"
       y="67.978676"
       width="739.05023"
       height="998.76361"
       id="rect1183" />
    <rect
       x="31.374775"
       y="67.978676"
       width="739.05023"
       height="998.76361"
       id="rect1185" />
    <rect
       x="31.374775"
       y="67.978676"
       width="739.05023"
       height="998.76361"
       id="rect51201" />
    <rect
       x="31.374775"
       y="67.978676"
       width="739.05023"
       height="998.76361"
       id="rect51203" />
  </defs>
  <g
     inkscape:label="Camada 1"
     inkscape:groupmode="layer"
     id="layer1"
     sodipodi:insensitive="true"
     style="display:none">
    <rect
       style="fill:#ffffff;stroke-width:0.40066"
       id="rect53"
       width="512.37109"
       height="290.54346"
       x="-3.689441"
       y="-3.2282608" />
    <text
       xml:space="preserve"
       transform="scale(0.26458333)"
       id="text4607"
       style="font-style:normal;font-weight:normal;font-size:40px;line-height:1.25;font-family:sans-serif;white-space:pre;shape-inside:url(#rect4609);fill:#000000;fill-opacity:1;stroke:none" />
  </g>
  <g
     inkscape:groupmode="layer"
     id="layer2"
     inkscape:label="Camada 2"
     style="display:none"
     sodipodi:insensitive="true">
    <text
       xml:space="preserve"
       transform="matrix(0.26458333,0,0,0.26458333,167.84399,9.6987703)"
       id="text9872"
       style="font-style:normal;font-weight:normal;font-size:40px;line-height:1.25;font-family:sans-serif;text-align:center;white-space:pre;shape-inside:url(#rect9874);fill:#7a1f78;fill-opacity:1;stroke:none"
       x="96.591797"
       y="0"><tspan
         x="400.90039"
         y="104.47173"
         id="tspan59204"><tspan
           style="font-family:BlocParty;-inkscape-font-specification:BlocParty"
           id="tspan59202">
</tspan></tspan><tspan
         x="303.40039"
         y="205.29782"
         id="tspan59208"><tspan
           style="font-size:96px;font-family:BlocParty;-inkscape-font-specification:BlocParty"
           id="tspan59206">WillPine
</tspan></tspan><tspan
         x="400.90039"
         y="325.29782"
         id="tspan59212"><tspan
           style="font-size:96px;font-family:BlocParty;-inkscape-font-specification:BlocParty"
           id="tspan59210">
</tspan></tspan><tspan
         x="282.40039"
         y="445.29782"
         id="tspan59216"><tspan
           style="font-size:96px;font-family:BlocParty;-inkscape-font-specification:BlocParty"
           id="tspan59214">WILLPINE
</tspan></tspan><tspan
         x="400.90039"
         y="565.29782"
         id="tspan59220"><tspan
           style="font-size:96px;font-family:BlocParty;-inkscape-font-specification:BlocParty"
           id="tspan59218">
</tspan></tspan><tspan
         x="303.40039"
         y="685.29779"
         id="tspan59224"><tspan
           style="font-size:96px;font-family:BlocParty;-inkscape-font-specification:BlocParty"
           id="tspan59222">willpine</tspan></tspan></text>
    <text
       xml:space="preserve"
       transform="matrix(0.26458333,0,0,0.26458333,167.83223,7.3059661)"
       id="text9872-1"
       style="font-style:normal;font-weight:normal;font-size:40px;line-height:1.25;font-family:sans-serif;text-align:center;white-space:pre;shape-inside:url(#rect9874-1);fill:#ff2e62;fill-opacity:1;stroke:none"
       x="96.591797"
       y="0"><tspan
         x="400.90039"
         y="104.47173"
         id="tspan59228"><tspan
           style="font-family:BlocParty;-inkscape-font-specification:BlocParty"
           id="tspan59226">
</tspan></tspan><tspan
         x="303.40039"
         y="205.29782"
         id="tspan59232"><tspan
           style="font-size:96px;font-family:BlocParty;-inkscape-font-specification:BlocParty"
           id="tspan59230">WillPine
</tspan></tspan><tspan
         x="400.90039"
         y="325.29782"
         id="tspan59236"><tspan
           style="font-size:96px;font-family:BlocParty;-inkscape-font-specification:BlocParty"
           id="tspan59234">
</tspan></tspan><tspan
         x="282.40039"
         y="445.29782"
         id="tspan59240"><tspan
           style="font-size:96px;font-family:BlocParty;-inkscape-font-specification:BlocParty"
           id="tspan59238">WILLPINE
</tspan></tspan><tspan
         x="400.90039"
         y="565.29782"
         id="tspan59244"><tspan
           style="font-size:96px;font-family:BlocParty;-inkscape-font-specification:BlocParty"
           id="tspan59242">
</tspan></tspan><tspan
         x="303.40039"
         y="685.29779"
         id="tspan59248"><tspan
           style="font-size:96px;font-family:BlocParty;-inkscape-font-specification:BlocParty"
           id="tspan59246">willpine</tspan></tspan></text>
    <text
       xml:space="preserve"
       transform="matrix(0.26458333,0,0,0.26458333,168.5216,6.5070951)"
       id="text9872-1-9"
       style="font-style:normal;font-weight:normal;font-size:40px;line-height:1.25;font-family:sans-serif;text-align:center;white-space:pre;shape-inside:url(#rect9874-1-1);fill:#ffd5d8;fill-opacity:1;stroke:none"
       x="96.591797"
       y="0"><tspan
         x="400.90039"
         y="104.9707"
         id="tspan59252"><tspan
           style="font-family:'a Astro Space';-inkscape-font-specification:'a Astro Space'"
           id="tspan59250">
</tspan></tspan><tspan
         x="303.40039"
         y="205.60793"
         id="tspan59256"><tspan
           style="font-size:96px;font-family:BlocParty;-inkscape-font-specification:BlocParty"
           id="tspan59254">WillPine
</tspan></tspan><tspan
         x="400.90039"
         y="325.60793"
         id="tspan59260"><tspan
           style="font-size:96px;font-family:BlocParty;-inkscape-font-specification:BlocParty"
           id="tspan59258">
</tspan></tspan><tspan
         x="282.40039"
         y="445.60791"
         id="tspan59264"><tspan
           style="font-size:96px;font-family:BlocParty;-inkscape-font-specification:BlocParty"
           id="tspan59262">WILLPINE
</tspan></tspan><tspan
         x="400.90039"
         y="565.60791"
         id="tspan59268"><tspan
           style="font-size:96px;font-family:BlocParty;-inkscape-font-specification:BlocParty"
           id="tspan59266">
</tspan></tspan><tspan
         x="303.40039"
         y="685.60791"
         id="tspan59272"><tspan
           style="font-size:96px;font-family:BlocParty;-inkscape-font-specification:BlocParty"
           id="tspan59270">willpine</tspan></tspan></text>
    <text
       xml:space="preserve"
       style="font-style:normal;font-weight:normal;font-size:10.5833px;line-height:1.25;font-family:sans-serif;fill:#000000;fill-opacity:1;stroke:none;stroke-width:0.264583"
       x="230.88133"
       y="82.830315"
       id="text65059"><tspan
         sodipodi:role="line"
         id="tspan65057"
         style="stroke-width:0.264583"
         x="230.88133"
         y="82.830315"> </tspan></text>
  </g>
  <g
     inkscape:groupmode="layer"
     id="layer3"
     inkscape:label="Fixes"
     style="display:none"
     sodipodi:insensitive="true">
    <path
       style="fill:#ff2e62;fill-opacity:1;stroke:none;stroke-width:0.264583px;stroke-linecap:butt;stroke-linejoin:miter;stroke-opacity:1"
       d="m 103.74298,95.831144 c 0.12229,-0.142671 2.68805,-3.472639 2.68805,-3.472639 l 1.75511,5.755363 z"
       id="path37447"
       sodipodi:nodetypes="cccc" />
    <path
       style="fill:#ff2e62;fill-opacity:1;stroke:none;stroke-width:0.264583px;stroke-linecap:butt;stroke-linejoin:miter;stroke-opacity:1"
       d="m 123.88132,95.832555 c 0.12229,-0.142671 2.68805,-3.472639 2.68805,-3.472639 l 1.75511,5.755363 z"
       id="path37447-6"
       sodipodi:nodetypes="cccc" />
    <path
       style="fill:#ff2e62;fill-opacity:1;stroke:none;stroke-width:0.264583px;stroke-linecap:butt;stroke-linejoin:miter;stroke-opacity:1"
       d="m 144.01032,95.836689 c 0.12229,-0.142671 2.68805,-3.472639 2.68805,-3.472639 l 1.75511,5.755363 z"
       id="path37447-6-1"
       sodipodi:nodetypes="cccc" />
    <path
       style="fill:#ff2e62;fill-opacity:1;stroke:none;stroke-width:0.264583px;stroke-linecap:butt;stroke-linejoin:miter;stroke-opacity:1"
       d="m 192.35064,95.834783 c 0.12229,-0.142671 2.68805,-3.472639 2.68805,-3.472639 l 1.75511,5.755363 z"
       id="path37447-6-1-0"
       sodipodi:nodetypes="cccc" />
    <path
       style="fill:#ff2e62;fill-opacity:1;stroke:none;stroke-width:0.264583px;stroke-linecap:butt;stroke-linejoin:miter;stroke-opacity:1"
       d="m 164.14702,152.23033 c 0.12229,-0.14267 2.68806,-3.47264 2.68806,-3.47264 l 1.75511,5.75537 z"
       id="path37447-6-1-2"
       sodipodi:nodetypes="cccc" />
    <path
       style="fill:#ff2e62;fill-opacity:1;stroke:none;stroke-width:0.264583px;stroke-linecap:butt;stroke-linejoin:miter;stroke-opacity:1"
       d="m 164.15286,95.846477 c 0.12229,-0.14267 2.68805,-3.47264 2.68805,-3.47264 l 1.75511,5.75536 z"
       id="path37447-6-1-7"
       sodipodi:nodetypes="cccc" />
    <path
       style="fill:#ff2e62;fill-opacity:1;stroke:none;stroke-width:0.264583px;stroke-linecap:butt;stroke-linejoin:miter;stroke-opacity:1"
       d="m 272.87894,95.811884 c 0.12229,-0.142671 2.68805,-3.472639 2.68805,-3.472639 l 1.75511,5.755362 z"
       id="path37447-6-1-8"
       sodipodi:nodetypes="cccc" />
    <path
       style="fill:#ff2e62;fill-opacity:1;stroke:none;stroke-width:0.264583px;stroke-linecap:butt;stroke-linejoin:miter;stroke-opacity:1"
       d="m 232.62846,95.82309 c 0.12229,-0.142671 2.68805,-3.472639 2.68805,-3.472639 l 1.75511,5.755363 z"
       id="path37447-6-1-20"
       sodipodi:nodetypes="cccc" />
    <path
       style="fill:#ff2e62;fill-opacity:1;stroke:none;stroke-width:0.264583px;stroke-linecap:butt;stroke-linejoin:miter;stroke-opacity:1"
       d="m 212.48814,144.16173 c 0.12229,-0.14267 2.68805,-3.47263 2.68805,-3.47263 l 1.75511,5.75536 z"
       id="path37447-6-1-20-0"
       sodipodi:nodetypes="cccc" />
    <path
       style="fill:#ff2e62;fill-opacity:1;stroke:none;stroke-width:0.264583px;stroke-linecap:butt;stroke-linejoin:miter;stroke-opacity:1"
       d="m 252.76566,144.15919 c 0.12229,-0.14267 2.68805,-3.47264 2.68805,-3.47264 l 1.75511,5.75537 z"
       id="path37447-6-1-20-8"
       sodipodi:nodetypes="cccc" />
    <path
       style="fill:#ff2e62;fill-opacity:1;stroke:none;stroke-width:0.264583px;stroke-linecap:butt;stroke-linejoin:miter;stroke-opacity:1"
       d="m 401.79053,144.16212 c 0.12229,-0.14267 2.68805,-3.47264 2.68805,-3.47264 l 1.75511,5.75536 z"
       id="path37447-6-1-20-9"
       sodipodi:nodetypes="cccc" />
    <path
       style="fill:#ff2e62;fill-opacity:1;stroke:none;stroke-width:0.264583px;stroke-linecap:butt;stroke-linejoin:miter;stroke-opacity:1"
       d="m 313.19482,95.87803 c 0.12229,-0.142671 2.68805,-3.472639 2.68805,-3.472639 l 1.75511,5.755363 z"
       id="path37447-6-1-3"
       sodipodi:nodetypes="cccc" />
    <path
       style="fill:#ff2e62;fill-opacity:1;stroke:none;stroke-width:0.264583px;stroke-linecap:butt;stroke-linejoin:miter;stroke-opacity:1"
       d="m 341.37295,95.830488 c 0.12229,-0.142671 2.68805,-3.472639 2.68805,-3.472639 l 1.75511,5.755363 z"
       id="path37447-6-1-4"
       sodipodi:nodetypes="cccc" />
    <path
       style="fill:#ff2e62;fill-opacity:1;stroke:none;stroke-width:0.264583px;stroke-linecap:butt;stroke-linejoin:miter;stroke-opacity:1"
       d="m 381.64907,95.829473 c 0.12229,-0.142671 2.68805,-3.472639 2.68805,-3.472639 l 1.75511,5.755363 z"
       id="path37447-6-1-02"
       sodipodi:nodetypes="cccc" />
    <path
       style="fill:#ff2e62;fill-opacity:1;stroke:none;stroke-width:0.264995px;stroke-linecap:butt;stroke-linejoin:miter;stroke-opacity:1"
       d="m 420.58153,164.8486 c -0.12224,0.14305 -2.68557,3.48319 -2.68557,3.48319 l -1.76888,-5.76096 z"
       id="path37447-6-1-1-4"
       sodipodi:nodetypes="cccc" />
    <path
       style="fill:#ff2e62;fill-opacity:1;stroke:none;stroke-width:0.264995px;stroke-linecap:butt;stroke-linejoin:miter;stroke-opacity:1"
       d="m 380.33927,164.85968 c -0.12224,0.14305 -2.68557,3.48319 -2.68557,3.48319 l -1.76888,-5.76096 z"
       id="path37447-6-1-1-4-1"
       sodipodi:nodetypes="cccc" />
    <path
       style="fill:#ff2e62;fill-opacity:1;stroke:none;stroke-width:0.264995px;stroke-linecap:butt;stroke-linejoin:miter;stroke-opacity:1"
       d="m 420.58309,136.64989 c -0.12224,0.14305 -2.68557,3.48319 -2.68557,3.48319 l -1.76888,-5.76096 z"
       id="path37447-6-1-1-4-1-0"
       sodipodi:nodetypes="cccc" />
    <path
       style="fill:#ff2e62;fill-opacity:1;stroke:none;stroke-width:0.264995px;stroke-linecap:butt;stroke-linejoin:miter;stroke-opacity:1"
       d="m 360.19194,164.86109 c -0.12224,0.14305 -2.68557,3.48319 -2.68557,3.48319 l -1.76888,-5.76096 z"
       id="path37447-6-1-1-4-9"
       sodipodi:nodetypes="cccc" />
    <path
       style="fill:#ff2e62;fill-opacity:1;stroke:none;stroke-width:0.264995px;stroke-linecap:butt;stroke-linejoin:miter;stroke-opacity:1"
       d="m 340.04534,164.86344 c -0.12224,0.14305 -2.68557,3.48319 -2.68557,3.48319 l -1.76888,-5.76096 z"
       id="path37447-6-1-1-4-5"
       sodipodi:nodetypes="cccc" />
    <path
       style="fill:#ff2e62;fill-opacity:1;stroke:none;stroke-width:0.264995px;stroke-linecap:butt;stroke-linejoin:miter;stroke-opacity:1"
       d="m 340.03186,108.4742 c -0.12224,0.14304 -2.68557,3.48318 -2.68557,3.48318 l -1.76888,-5.76095 z"
       id="path37447-6-1-1-4-15"
       sodipodi:nodetypes="cccc" />
    <path
       style="fill:#ff2e62;fill-opacity:1;stroke:none;stroke-width:0.264995px;stroke-linecap:butt;stroke-linejoin:miter;stroke-opacity:1"
       d="m 311.8228,136.68297 c -0.12224,0.14305 -2.68557,3.48319 -2.68557,3.48319 l -1.76888,-5.76096 z"
       id="path37447-6-1-1-4-11"
       sodipodi:nodetypes="cccc" />
    <path
       style="fill:#ff2e62;fill-opacity:1;stroke:none;stroke-width:0.264995px;stroke-linecap:butt;stroke-linejoin:miter;stroke-opacity:1"
       d="m 291.731,164.86109 c -0.12224,0.14305 -2.68557,3.48319 -2.68557,3.48319 l -1.76888,-5.76096 z"
       id="path37447-6-1-1-4-96"
       sodipodi:nodetypes="cccc" />
    <path
       style="fill:#ff2e62;fill-opacity:1;stroke:none;stroke-width:0.264995px;stroke-linecap:butt;stroke-linejoin:miter;stroke-opacity:1"
       d="m 271.58842,164.87743 c -0.12224,0.14305 -2.68557,3.48319 -2.68557,3.48319 l -1.76888,-5.76096 z"
       id="path37447-6-1-1-4-98"
       sodipodi:nodetypes="cccc" />
    <path
       style="fill:#ff2e62;fill-opacity:1;stroke:none;stroke-width:0.264995px;stroke-linecap:butt;stroke-linejoin:miter;stroke-opacity:1"
       d="m 231.28841,164.85244 c -0.12224,0.14305 -2.68557,3.48319 -2.68557,3.48319 l -1.76888,-5.76096 z"
       id="path37447-6-1-1-4-111"
       sodipodi:nodetypes="cccc" />
    <path
       style="fill:#ff2e62;fill-opacity:1;stroke:none;stroke-width:0.264995px;stroke-linecap:butt;stroke-linejoin:miter;stroke-opacity:1"
       d="m 191.05816,164.85488 c -0.12224,0.14305 -2.68557,3.48319 -2.68557,3.48319 l -1.76888,-5.76096 z"
       id="path37447-6-1-1-4-111-5"
       sodipodi:nodetypes="cccc" />
    <path
       style="fill:#ff2e62;fill-opacity:1;stroke:none;stroke-width:0.264995px;stroke-linecap:butt;stroke-linejoin:miter;stroke-opacity:1"
       d="m 191.05816,164.85488 c -0.12224,-0.14305 -2.68557,-3.48319 -2.68557,-3.48319 l -1.76888,5.76096 z"
       id="path37447-6-1-1-4-14"
       sodipodi:nodetypes="cccc" />
    <path
       style="fill:#ff2e62;fill-opacity:1;stroke:none;stroke-width:0.264995px;stroke-linecap:butt;stroke-linejoin:miter;stroke-opacity:1"
       d="m 190.99969,108.48168 c -0.12224,0.14305 -2.68557,3.48319 -2.68557,3.48319 l -1.76888,-5.76096 z"
       id="path37447-6-1-1-4-0"
       sodipodi:nodetypes="cccc" />
    <path
       style="fill:#ff2e62;fill-opacity:1;stroke:none;stroke-width:0.264995px;stroke-linecap:butt;stroke-linejoin:miter;stroke-opacity:1"
       d="m 420.57688,116.51262 c -0.12224,0.14305 -2.68557,3.48319 -2.68557,3.48319 l -1.76888,-5.76096 z"
       id="path37447-6-1-1-4-1-9"
       sodipodi:nodetypes="cccc" />
    <path
       style="fill:#ff2e62;fill-opacity:1;stroke:none;stroke-width:0.264583px;stroke-linecap:butt;stroke-linejoin:miter;stroke-opacity:1"
       d="m 313.18036,152.21774 c 0.12229,-0.14267 2.68805,-3.47264 2.68805,-3.47264 l 1.75511,5.75537 z"
       id="path37447-6-1-20-7"
       sodipodi:nodetypes="cccc" />
  </g>
  <g
     inkscape:groupmode="layer"
     id="g1179"
     inkscape:label="Text"
     sodipodi:insensitive="true"
     style="display:none">
    <text
       xml:space="preserve"
       transform="matrix(0.6712731,0,0,0.6712731,-6.2793477,-480.03214)"
       id="text1147"
       style="font-style:normal;font-weight:normal;font-size:192px;line-height:1.25;font-family:sans-serif;text-align:center;white-space:pre;shape-inside:url(#rect1183);fill:#ff2e62;fill-opacity:1;stroke:none"
       x="96.591797"
       y="0"><tspan
         x="400.90039"
         y="243.14594"
         id="tspan59276"><tspan
           style="font-family:BlocParty;-inkscape-font-specification:BlocParty"
           id="tspan59274">
</tspan></tspan><tspan
         x="205.90039"
         y="484.05249"
         id="tspan59280"><tspan
           style="font-family:BlocParty;-inkscape-font-specification:BlocParty"
           id="tspan59278">WillPine
</tspan></tspan><tspan
         x="400.90039"
         y="724.95905"
         id="tspan59284"><tspan
           style="font-family:BlocParty;-inkscape-font-specification:BlocParty"
           id="tspan59282">
</tspan></tspan><tspan
         x="163.90039"
         y="965.8656"
         id="tspan59288"><tspan
           style="font-family:BlocParty;-inkscape-font-specification:BlocParty"
           id="tspan59286">WILLPINE
</tspan></tspan><tspan
         x="31.375"
         y="1206.7722"
         id="tspan59292"><tspan
           style="font-family:BlocParty;-inkscape-font-specification:BlocParty"
           id="tspan59290">
</tspan></tspan><tspan
         x="31.375"
         y="1241.9096"
         id="tspan59296"><tspan
           dx="0 90 30 30 30 60 30 60"
           style="font-family:BlocParty;-inkscape-font-specification:BlocParty"
           id="tspan59294">willpine</tspan></tspan></text>
    <text
       xml:space="preserve"
       transform="matrix(0.6712731,0,0,0.6712731,-3.5908878,-353.86509)"
       id="text1173"
       style="font-style:normal;font-weight:normal;font-size:40px;line-height:1.25;font-family:sans-serif;text-align:center;white-space:pre;shape-inside:url(#rect1185);fill:#ffd5d8;fill-opacity:1;stroke:none"
       x="96.591797"
       y="0"><tspan
         x="400.90039"
         y="104.9707"
         id="tspan59300"><tspan
           style="font-family:'a Astro Space';-inkscape-font-specification:'a Astro Space'"
           id="tspan59298">
</tspan></tspan><tspan
         x="205.90039"
         y="292.73836"
         id="tspan59304"><tspan
           style="font-size:192px;font-family:BlocParty;-inkscape-font-specification:BlocParty"
           id="tspan59302">WillPine
</tspan></tspan><tspan
         x="400.90039"
         y="532.73835"
         id="tspan59308"><tspan
           style="font-size:192px;font-family:BlocParty;-inkscape-font-specification:BlocParty"
           id="tspan59306">
</tspan></tspan><tspan
         x="163.90039"
         y="772.73835"
         id="tspan59312"><tspan
           style="font-size:192px;font-family:BlocParty;-inkscape-font-specification:BlocParty"
           id="tspan59310">WILLPINE
</tspan></tspan><tspan
         x="400.90039"
         y="1012.7383"
         id="tspan59316"><tspan
           style="font-size:192px;font-family:BlocParty;-inkscape-font-specification:BlocParty"
           id="tspan59314">
</tspan></tspan><tspan
         x="31.375"
         y="1241.0031"
         id="tspan59320"><tspan
           dx="0 90 30 30 30 60 30 60 60"
           style="font-size:192px;font-family:BlocParty;-inkscape-font-specification:BlocParty"
           id="tspan59318">willpine
</tspan></tspan></text>
    <text
       xml:space="preserve"
       style="font-style:normal;font-weight:normal;font-size:26.8508px;line-height:1.25;font-family:sans-serif;fill:#000000;fill-opacity:1;stroke:none;stroke-width:0.671272"
       x="153.68224"
       y="-288.41968"
       id="text1177"><tspan
         sodipodi:role="line"
         id="tspan1175"
         style="stroke-width:0.671272"
         x="153.68224"
         y="-288.41968"> </tspan></text>
  </g>
  <g
     inkscape:groupmode="layer"
     id="g51263"
     inkscape:label="Fixes copiar"
     style="display:inline" />
  <g
     inkscape:groupmode="layer"
     id="g51199"
     inkscape:label="Text copiar">
    <g
       id="g58348"
       transform="translate(0.74835471,339.00467)">
      <path
         style="display:inline;fill:#ff2e62;fill-opacity:1;stroke:none;stroke-width:0.264583px;stroke-linecap:butt;stroke-linejoin:miter;stroke-opacity:1"
         d="m 103.74298,95.831144 c 0.12229,-0.142671 2.68805,-3.472639 2.68805,-3.472639 l 1.75511,5.755363 z"
         id="path51205"
         sodipodi:nodetypes="cccc" />
      <path
         style="display:inline;fill:#ff2e62;fill-opacity:1;stroke:none;stroke-width:0.264583px;stroke-linecap:butt;stroke-linejoin:miter;stroke-opacity:1"
         d="m 123.88132,95.832555 c 0.12229,-0.142671 2.68805,-3.472639 2.68805,-3.472639 l 1.75511,5.755363 z"
         id="path51207"
         sodipodi:nodetypes="cccc" />
      <path
         style="display:inline;fill:#ff2e62;fill-opacity:1;stroke:none;stroke-width:0.264583px;stroke-linecap:butt;stroke-linejoin:miter;stroke-opacity:1"
         d="m 144.01032,95.836689 c 0.12229,-0.142671 2.68805,-3.472639 2.68805,-3.472639 l 1.75511,5.755363 z"
         id="path51209"
         sodipodi:nodetypes="cccc" />
      <path
         style="display:inline;fill:#ff2e62;fill-opacity:1;stroke:none;stroke-width:0.264583px;stroke-linecap:butt;stroke-linejoin:miter;stroke-opacity:1"
         d="m 192.35064,95.834783 c 0.12229,-0.142671 2.68805,-3.472639 2.68805,-3.472639 l 1.75511,5.755363 z"
         id="path51211"
         sodipodi:nodetypes="cccc" />
      <path
         style="display:inline;fill:#ff2e62;fill-opacity:1;stroke:none;stroke-width:0.264583px;stroke-linecap:butt;stroke-linejoin:miter;stroke-opacity:1"
         d="m 164.14702,152.23033 c 0.12229,-0.14267 2.68806,-3.47264 2.68806,-3.47264 l 1.75511,5.75537 z"
         id="path51213"
         sodipodi:nodetypes="cccc" />
      <path
         style="display:inline;fill:#ff2e62;fill-opacity:1;stroke:none;stroke-width:0.264583px;stroke-linecap:butt;stroke-linejoin:miter;stroke-opacity:1"
         d="m 164.15286,95.846477 c 0.12229,-0.14267 2.68805,-3.47264 2.68805,-3.47264 l 1.75511,5.75536 z"
         id="path51215"
         sodipodi:nodetypes="cccc" />
      <path
         style="display:inline;fill:#ff2e62;fill-opacity:1;stroke:none;stroke-width:0.264583px;stroke-linecap:butt;stroke-linejoin:miter;stroke-opacity:1"
         d="m 272.87894,95.811884 c 0.12229,-0.142671 2.68805,-3.472639 2.68805,-3.472639 l 1.75511,5.755362 z"
         id="path51217"
         sodipodi:nodetypes="cccc" />
      <path
         style="display:inline;fill:#ff2e62;fill-opacity:1;stroke:none;stroke-width:0.264583px;stroke-linecap:butt;stroke-linejoin:miter;stroke-opacity:1"
         d="m 232.62846,95.82309 c 0.12229,-0.142671 2.68805,-3.472639 2.68805,-3.472639 l 1.75511,5.755363 z"
         id="path51219"
         sodipodi:nodetypes="cccc" />
      <path
         style="display:inline;fill:#ff2e62;fill-opacity:1;stroke:none;stroke-width:0.264583px;stroke-linecap:butt;stroke-linejoin:miter;stroke-opacity:1"
         d="m 212.48814,144.16173 c 0.12229,-0.14267 2.68805,-3.47263 2.68805,-3.47263 l 1.75511,5.75536 z"
         id="path51221"
         sodipodi:nodetypes="cccc" />
      <path
         style="display:inline;fill:#ff2e62;fill-opacity:1;stroke:none;stroke-width:0.264583px;stroke-linecap:butt;stroke-linejoin:miter;stroke-opacity:1"
         d="m 252.76566,144.15919 c 0.12229,-0.14267 2.68805,-3.47264 2.68805,-3.47264 l 1.75511,5.75537 z"
         id="path51223"
         sodipodi:nodetypes="cccc" />
      <path
         style="display:inline;fill:#ff2e62;fill-opacity:1;stroke:none;stroke-width:0.264583px;stroke-linecap:butt;stroke-linejoin:miter;stroke-opacity:1"
         d="m 401.79053,144.16212 c 0.12229,-0.14267 2.68805,-3.47264 2.68805,-3.47264 l 1.75511,5.75536 z"
         id="path51225"
         sodipodi:nodetypes="cccc" />
      <path
         style="display:inline;fill:#ff2e62;fill-opacity:1;stroke:none;stroke-width:0.264583px;stroke-linecap:butt;stroke-linejoin:miter;stroke-opacity:1"
         d="m 313.19482,95.87803 c 0.12229,-0.142671 2.68805,-3.472639 2.68805,-3.472639 l 1.75511,5.755363 z"
         id="path51227"
         sodipodi:nodetypes="cccc" />
      <path
         style="display:inline;fill:#ff2e62;fill-opacity:1;stroke:none;stroke-width:0.264583px;stroke-linecap:butt;stroke-linejoin:miter;stroke-opacity:1"
         d="m 341.37295,95.830488 c 0.12229,-0.142671 2.68805,-3.472639 2.68805,-3.472639 l 1.75511,5.755363 z"
         id="path51229"
         sodipodi:nodetypes="cccc" />
      <path
         style="display:inline;fill:#ff2e62;fill-opacity:1;stroke:none;stroke-width:0.264583px;stroke-linecap:butt;stroke-linejoin:miter;stroke-opacity:1"
         d="m 381.64907,95.829473 c 0.12229,-0.142671 2.68805,-3.472639 2.68805,-3.472639 l 1.75511,5.755363 z"
         id="path51231"
         sodipodi:nodetypes="cccc" />
      <path
         style="display:inline;fill:#ff2e62;fill-opacity:1;stroke:none;stroke-width:0.264995px;stroke-linecap:butt;stroke-linejoin:miter;stroke-opacity:1"
         d="m 420.58153,164.8486 c -0.12224,0.14305 -2.68557,3.48319 -2.68557,3.48319 l -1.76888,-5.76096 z"
         id="path51233"
         sodipodi:nodetypes="cccc" />
      <path
         style="display:inline;fill:#ff2e62;fill-opacity:1;stroke:none;stroke-width:0.264995px;stroke-linecap:butt;stroke-linejoin:miter;stroke-opacity:1"
         d="m 380.33927,164.85968 c -0.12224,0.14305 -2.68557,3.48319 -2.68557,3.48319 l -1.76888,-5.76096 z"
         id="path51235"
         sodipodi:nodetypes="cccc" />
      <path
         style="display:inline;fill:#ff2e62;fill-opacity:1;stroke:none;stroke-width:0.264995px;stroke-linecap:butt;stroke-linejoin:miter;stroke-opacity:1"
         d="m 420.58309,136.64989 c -0.12224,0.14305 -2.68557,3.48319 -2.68557,3.48319 l -1.76888,-5.76096 z"
         id="path51237"
         sodipodi:nodetypes="cccc" />
      <path
         style="display:inline;fill:#ff2e62;fill-opacity:1;stroke:none;stroke-width:0.264995px;stroke-linecap:butt;stroke-linejoin:miter;stroke-opacity:1"
         d="m 360.19194,164.86109 c -0.12224,0.14305 -2.68557,3.48319 -2.68557,3.48319 l -1.76888,-5.76096 z"
         id="path51239"
         sodipodi:nodetypes="cccc" />
      <path
         style="display:inline;fill:#ff2e62;fill-opacity:1;stroke:none;stroke-width:0.264995px;stroke-linecap:butt;stroke-linejoin:miter;stroke-opacity:1"
         d="m 340.04534,164.86344 c -0.12224,0.14305 -2.68557,3.48319 -2.68557,3.48319 l -1.76888,-5.76096 z"
         id="path51241"
         sodipodi:nodetypes="cccc" />
      <path
         style="display:inline;fill:#ff2e62;fill-opacity:1;stroke:none;stroke-width:0.264995px;stroke-linecap:butt;stroke-linejoin:miter;stroke-opacity:1"
         d="m 340.03186,108.4742 c -0.12224,0.14304 -2.68557,3.48318 -2.68557,3.48318 l -1.76888,-5.76095 z"
         id="path51243"
         sodipodi:nodetypes="cccc" />
      <path
         style="display:inline;fill:#ff2e62;fill-opacity:1;stroke:none;stroke-width:0.264995px;stroke-linecap:butt;stroke-linejoin:miter;stroke-opacity:1"
         d="m 311.8228,136.68297 c -0.12224,0.14305 -2.68557,3.48319 -2.68557,3.48319 l -1.76888,-5.76096 z"
         id="path51245"
         sodipodi:nodetypes="cccc" />
      <path
         style="display:inline;fill:#ff2e62;fill-opacity:1;stroke:none;stroke-width:0.264995px;stroke-linecap:butt;stroke-linejoin:miter;stroke-opacity:1"
         d="m 291.731,164.86109 c -0.12224,0.14305 -2.68557,3.48319 -2.68557,3.48319 l -1.76888,-5.76096 z"
         id="path51247"
         sodipodi:nodetypes="cccc" />
      <path
         style="display:inline;fill:#ff2e62;fill-opacity:1;stroke:none;stroke-width:0.264995px;stroke-linecap:butt;stroke-linejoin:miter;stroke-opacity:1"
         d="m 271.58842,164.87743 c -0.12224,0.14305 -2.68557,3.48319 -2.68557,3.48319 l -1.76888,-5.76096 z"
         id="path51249"
         sodipodi:nodetypes="cccc" />
      <path
         style="display:inline;fill:#ff2e62;fill-opacity:1;stroke:none;stroke-width:0.264995px;stroke-linecap:butt;stroke-linejoin:miter;stroke-opacity:1"
         d="m 231.28841,164.85244 c -0.12224,0.14305 -2.68557,3.48319 -2.68557,3.48319 l -1.76888,-5.76096 z"
         id="path51251"
         sodipodi:nodetypes="cccc" />
      <path
         style="display:inline;fill:#ff2e62;fill-opacity:1;stroke:none;stroke-width:0.264995px;stroke-linecap:butt;stroke-linejoin:miter;stroke-opacity:1"
         d="m 191.05816,164.85488 c -0.12224,0.14305 -2.68557,3.48319 -2.68557,3.48319 l -1.76888,-5.76096 z"
         id="path51253"
         sodipodi:nodetypes="cccc" />
      <path
         style="display:inline;fill:#ff2e62;fill-opacity:1;stroke:none;stroke-width:0.264995px;stroke-linecap:butt;stroke-linejoin:miter;stroke-opacity:1"
         d="m 191.05816,164.85488 c -0.12224,-0.14305 -2.68557,-3.48319 -2.68557,-3.48319 l -1.76888,5.76096 z"
         id="path51255"
         sodipodi:nodetypes="cccc" />
      <path
         style="display:inline;fill:#ff2e62;fill-opacity:1;stroke:none;stroke-width:0.264995px;stroke-linecap:butt;stroke-linejoin:miter;stroke-opacity:1"
         d="m 190.99969,108.48168 c -0.12224,0.14305 -2.68557,3.48319 -2.68557,3.48319 l -1.76888,-5.76096 z"
         id="path51257"
         sodipodi:nodetypes="cccc" />
      <path
         style="display:inline;fill:#ff2e62;fill-opacity:1;stroke:none;stroke-width:0.264995px;stroke-linecap:butt;stroke-linejoin:miter;stroke-opacity:1"
         d="m 420.57688,116.51262 c -0.12224,0.14305 -2.68557,3.48319 -2.68557,3.48319 l -1.76888,-5.76096 z"
         id="path51259"
         sodipodi:nodetypes="cccc" />
      <path
         style="display:inline;fill:#ff2e62;fill-opacity:1;stroke:none;stroke-width:0.264583px;stroke-linecap:butt;stroke-linejoin:miter;stroke-opacity:1"
         d="m 313.18036,152.21774 c 0.12229,-0.14267 2.68805,-3.47264 2.68805,-3.47264 l 1.75511,5.75537 z"
         id="path51261"
         sodipodi:nodetypes="cccc" />
      <g
         aria-label="
WillPine

WILLPINE"
         transform="matrix(0.6712731,0,0,0.6712731,-6.2793477,-480.03214)"
         id="text51167"
         style="font-size:192px;line-height:1.25;text-align:center;white-space:pre;shape-inside:url(#rect51201);fill:#ff2e62">
        <path
           d="m 205.90039,484.05249 v -108 h 24 v 84 h 6 v -84 h 24 v 84 h 6 v -84 h 24 v 96 l -12,12 z"
           style="font-family:BlocParty;-inkscape-font-specification:BlocParty"
           id="path58197" />
        <path
           d="m 295.90039,484.05249 v -78 h 24 v 78 z m 0,-84 v -24 h 24 v 24 z"
           style="font-family:BlocParty;-inkscape-font-specification:BlocParty"
           id="path58199" />
        <path
           d="m 325.90039,484.05249 v -108 h 24 v 108 z"
           style="font-family:BlocParty;-inkscape-font-specification:BlocParty"
           id="path58201" />
        <path
           d="m 355.90039,484.05249 v -108 h 24 v 108 z"
           style="font-family:BlocParty;-inkscape-font-specification:BlocParty"
           id="path58203" />
        <path
           d="m 415.90039,418.05249 v -18 h -6 v 18 z m -30,66 v -108 h 54 v 66 h -30 v 42 z"
           style="font-family:BlocParty;-inkscape-font-specification:BlocParty"
           id="path58205" />
        <path
           d="m 445.90039,484.05249 v -78 h 24 v 78 z m 0,-84 v -24 h 24 v 24 z"
           style="font-family:BlocParty;-inkscape-font-specification:BlocParty"
           id="path58207" />
        <path
           d="m 475.90039,484.05249 v -102 h 54 v 102 h -24 v -78 h -6 v 78 z"
           style="font-family:BlocParty;-inkscape-font-specification:BlocParty"
           id="path58209" />
        <path
           d="m 565.90039,412.05249 v -6 h -6 v 6 z m -30,72 v -102 h 54 v 54 h -30 v 24 h 6 v -18 h 24 v 42 z"
           style="font-family:BlocParty;-inkscape-font-specification:BlocParty"
           id="path58211" />
        <path
           d="m 163.90039,965.8656 v -108 h 24 v 84 h 6 v -84 h 24 v 84 h 6 v -84 h 24 v 96 l -12,12 z"
           style="font-family:BlocParty;-inkscape-font-specification:BlocParty"
           id="path58213" />
        <path
           d="m 253.90039,965.8656 v -24 h 6 v -60 h -6 v -24 h 36 v 24 h -6 v 60 h 6 v 24 z"
           style="font-family:BlocParty;-inkscape-font-specification:BlocParty"
           id="path58215" />
        <path
           d="m 295.90039,965.8656 v -108 h 24 v 84 h 6 v -12 h 24 v 36 z"
           style="font-family:BlocParty;-inkscape-font-specification:BlocParty"
           id="path58217" />
        <path
           d="m 355.90039,965.8656 v -108 h 24 v 84 h 6 v -12 h 24 v 36 z"
           style="font-family:BlocParty;-inkscape-font-specification:BlocParty"
           id="path58219" />
        <path
           d="m 445.90039,899.8656 v -18 h -6 v 18 z m -30,66 v -108 h 54 v 66 h -30 v 42 z"
           style="font-family:BlocParty;-inkscape-font-specification:BlocParty"
           id="path58221" />
        <path
           d="m 475.90039,965.8656 v -24 h 6 v -60 h -6 v -24 h 36 v 24 h -6 v 60 h 6 v 24 z"
           style="font-family:BlocParty;-inkscape-font-specification:BlocParty"
           id="path58223" />
        <path
           d="m 517.90039,965.8656 v -108 h 54 v 108 h -24 v -84 h -6 v 84 z"
           style="font-family:BlocParty;-inkscape-font-specification:BlocParty"
           id="path58225" />
        <path
           d="m 577.90039,965.8656 v -108 h 54 v 36 h -24 v -12 h -6 v 18 h 30 v 24 h -30 v 18 h 6 v -12 h 24 v 36 z"
           style="font-family:BlocParty;-inkscape-font-specification:BlocParty"
           id="path58227" />
      </g>
      <g
         aria-label="
WillPine

WILLPINE

willpine
"
         transform="matrix(0.6712731,0,0,0.6712731,-3.5908878,-353.86509)"
         id="text51193"
         style="font-size:40px;line-height:1.25;text-align:center;white-space:pre;shape-inside:url(#rect51203);fill:#ffd5d8">
        <path
           d="m 205.90039,292.73836 v -108 h 24 v 84 h 6 v -84 h 24 v 84 h 6 v -84 h 24 v 96 l -12,12 z"
           style="font-size:192px;font-family:BlocParty;-inkscape-font-specification:BlocParty"
           id="path58148" />
        <path
           d="m 295.90039,292.73836 v -78 h 24 v 78 z m 0,-84 v -24 h 24 v 24 z"
           style="font-size:192px;font-family:BlocParty;-inkscape-font-specification:BlocParty"
           id="path58150" />
        <path
           d="m 325.90039,292.73836 v -108 h 24 v 108 z"
           style="font-size:192px;font-family:BlocParty;-inkscape-font-specification:BlocParty"
           id="path58152" />
        <path
           d="m 355.90039,292.73836 v -108 h 24 v 108 z"
           style="font-size:192px;font-family:BlocParty;-inkscape-font-specification:BlocParty"
           id="path58154" />
        <path
           d="m 415.90039,226.73836 v -18 h -6 v 18 z m -30,66 v -108 h 54 v 66 h -30 v 42 z"
           style="font-size:192px;font-family:BlocParty;-inkscape-font-specification:BlocParty"
           id="path58156" />
        <path
           d="m 445.90039,292.73836 v -78 h 24 v 78 z m 0,-84 v -24 h 24 v 24 z"
           style="font-size:192px;font-family:BlocParty;-inkscape-font-specification:BlocParty"
           id="path58158" />
        <path
           d="m 475.90039,292.73836 v -102 h 54 v 102 h -24 v -78 h -6 v 78 z"
           style="font-size:192px;font-family:BlocParty;-inkscape-font-specification:BlocParty"
           id="path58160" />
        <path
           d="m 565.90039,220.73836 v -6 h -6 v 6 z m -30,72 v -102 h 54 v 54 h -30 v 24 h 6 v -18 h 24 v 42 z"
           style="font-size:192px;font-family:BlocParty;-inkscape-font-specification:BlocParty"
           id="path58162" />
        <path
           d="m 163.90039,772.73835 v -108 h 24 v 84 h 6 v -84 h 24 v 84 h 6 v -84 h 24 v 96 l -12,12 z"
           style="font-size:192px;font-family:BlocParty;-inkscape-font-specification:BlocParty"
           id="path58164" />
        <path
           d="m 253.90039,772.73835 v -24 h 6 v -60 h -6 v -24 h 36 v 24 h -6 v 60 h 6 v 24 z"
           style="font-size:192px;font-family:BlocParty;-inkscape-font-specification:BlocParty"
           id="path58166" />
        <path
           d="m 295.90039,772.73835 v -108 h 24 v 84 h 6 v -12 h 24 v 36 z"
           style="font-size:192px;font-family:BlocParty;-inkscape-font-specification:BlocParty"
           id="path58168" />
        <path
           d="m 355.90039,772.73835 v -108 h 24 v 84 h 6 v -12 h 24 v 36 z"
           style="font-size:192px;font-family:BlocParty;-inkscape-font-specification:BlocParty"
           id="path58170" />
        <path
           d="m 445.90039,706.73835 v -18 h -6 v 18 z m -30,66 v -108 h 54 v 66 h -30 v 42 z"
           style="font-size:192px;font-family:BlocParty;-inkscape-font-specification:BlocParty"
           id="path58172" />
        <path
           d="m 475.90039,772.73835 v -24 h 6 v -60 h -6 v -24 h 36 v 24 h -6 v 60 h 6 v 24 z"
           style="font-size:192px;font-family:BlocParty;-inkscape-font-specification:BlocParty"
           id="path58174" />
        <path
           d="m 517.90039,772.73835 v -108 h 54 v 108 h -24 v -84 h -6 v 84 z"
           style="font-size:192px;font-family:BlocParty;-inkscape-font-specification:BlocParty"
           id="path58176" />
        <path
           d="m 577.90039,772.73835 v -108 h 54 v 36 h -24 v -12 h -6 v 18 h 30 v 24 h -30 v 18 h 6 v -12 h 24 v 36 z"
           style="font-size:192px;font-family:BlocParty;-inkscape-font-specification:BlocParty"
           id="path58178" />
        <path
           d="m 31.375,1241.0031 v -102 h 24 v 78 h 6 v -78 h 24 v 78 h 6 v -78 h 24 v 90 l -12,12 z"
           style="font-size:192px;font-family:BlocParty;-inkscape-font-specification:BlocParty"
           id="path58180" />
        <path
           d="m 121.375,1241.0031 v -78 h 24 v 78 z m 0,-84 v -24 h 24 v 24 z"
           style="font-size:192px;font-family:BlocParty;-inkscape-font-specification:BlocParty"
           id="path58182" />
        <path
           d="m 151.375,1241.0031 v -108 h 24 v 108 z"
           style="font-size:192px;font-family:BlocParty;-inkscape-font-specification:BlocParty"
           id="path58184" />
        <path
           d="m 181.375,1241.0031 v -108 h 24 v 108 z"
           style="font-size:192px;font-family:BlocParty;-inkscape-font-specification:BlocParty"
           id="path58186" />
        <path
           d="m 241.375,1217.0031 v -54 h -6 v 54 z m -30,54 v -132 h 54 v 102 h -30 v 30 z"
           style="font-size:192px;font-family:BlocParty;-inkscape-font-specification:BlocParty"
           id="path58188" />
        <path
           d="m 271.375,1241.0031 v -78 h 24 v 78 z m 0,-84 v -24 h 24 v 24 z"
           style="font-size:192px;font-family:BlocParty;-inkscape-font-specification:BlocParty"
           id="path58190" />
        <path
           d="m 301.375,1241.0031 v -102 h 54 v 102 h -24 v -78 h -6 v 78 z"
           style="font-size:192px;font-family:BlocParty;-inkscape-font-specification:BlocParty"
           id="path58192" />
        <path
           d="m 391.375,1169.0031 v -6 h -6 v 6 z m -30,72 v -102 h 54 v 54 h -30 v 24 h 6 v -18 h 24 v 42 z"
           style="font-size:192px;font-family:BlocParty;-inkscape-font-specification:BlocParty"
           id="path58194" />
      </g>
    </g>
    <text
       xml:space="preserve"
       style="font-style:normal;font-weight:normal;font-size:26.8508px;line-height:1.25;font-family:sans-serif;fill:#000000;fill-opacity:1;stroke:none;stroke-width:0.671272"
       x="153.68224"
       y="-288.41968"
       id="text51197"><tspan
         sodipodi:role="line"
         id="tspan51195"
         style="stroke-width:0.671272"
         x="153.68224"
         y="-288.41968"> </tspan></text>
  </g>
</svg>
